<svg class="icon" xmlns="http://www.w3.org/2000/svg" viewBox="0 0 179.1 145">

  <circle cx="90.5" cy="90.2" r="19.7" />
  <g id="settings-anm">
    <path stroke-linejoin="round" d="M144.7,73.8l-6.2-1c-0.6-1.5-1.2-3-1.9-4.5l3.6-5.1c3.2-4.4,2.7-10.5-1.2-14.3l-7.4-7.4
                  c-2.1-2.1-4.9-3.3-7.8-3.3c-2.3,0-4.5,0.7-6.4,2.1l-5.1,3.6c-1.6-0.7-3.2-1.4-4.8-2l-1-6.1c-0.9-5.4-5.5-9.3-10.9-9.3H85.1
                  c-5.4,0-10,3.9-10.9,9.2L73.1,42c-1.5,0.6-3,1.2-4.5,1.9l-5-3.6c-1.9-1.4-4.1-2.1-6.5-2.1c-3,0-5.8,1.2-7.8,3.3l-7.4,7.4
                  c-3.8,3.8-4.3,9.8-1.2,14.3l3.7,5.2c-0.7,1.5-1.3,3-1.8,4.5l-6.1,1c-5.4,0.9-9.3,5.5-9.3,10.9v10.5c0,5.4,3.9,10,9.2,10.9l6.3,1.1
                  c0.6,1.5,1.2,3,1.9,4.5l-3.6,5c-3.2,4.4-2.7,10.5,1.2,14.3l7.4,7.4c2.1,2.1,4.9,3.3,7.8,3.3c2.3,0,4.5-0.7,6.4-2.1L69,136
                  c1.4,0.6,2.8,1.2,4.2,1.7l1,6.2c0.9,5.4,5.5,9.3,10.9,9.3h10.5c5.4,0,10-3.9,10.9-9.2l1-6.2c1.5-0.6,3-1.2,4.5-1.9l5.1,3.6
                  c1.9,1.4,4.1,2.1,6.5,2.1c3,0,5.7-1.2,7.8-3.3l7.4-7.4c3.8-3.8,4.3-9.8,1.2-14.3l-3.6-5.1c0.7-1.5,1.3-3,1.9-4.5l6.2-1
                  c5.4-0.9,9.3-5.5,9.3-10.9V84.8C153.9,79.3,150.1,74.7,144.7,73.8z" />
  </g>

</svg>
